<svg width="33" height="32" viewBox="0 0 33 32" fill="none" xmlns="http://www.w3.org/2000/svg">
<g id="entypo:light-down">
<path id="Vector" d="M16.3471 10.8752C15.6723 10.8733 15.0038 11.0045 14.3801 11.2612C13.7563 11.5179 13.1896 11.8951 12.7126 12.3711C12.2355 12.8471 11.8575 13.4125 11.6003 14.0347C11.3431 14.6569 11.2118 15.3238 11.2139 15.9968C11.212 16.6696 11.3435 17.3362 11.6008 17.9581C11.8581 18.5801 12.2362 19.1452 12.7132 19.6209C13.1903 20.0965 13.7569 20.4735 14.3806 20.7299C15.0042 20.9864 15.6725 21.1173 16.3471 21.1152C17.0215 21.1171 17.6896 20.986 18.3131 20.7294C18.9365 20.4729 19.503 20.0959 19.9799 19.6203C20.4568 19.1446 20.8347 18.5796 21.0919 17.9578C21.3491 17.3359 21.4805 16.6695 21.4786 15.9968C21.481 15.3238 21.3498 14.6571 21.0928 14.0348C20.8358 13.4126 20.458 12.8472 19.981 12.3712C19.5041 11.8952 18.9375 11.518 18.3138 11.2612C17.6902 11.0045 17.0218 10.8733 16.3471 10.8752ZM16.3471 19.2752C15.4749 19.2752 14.6385 18.9296 14.0218 18.3145C13.4051 17.6994 13.0586 16.8651 13.0586 15.9952C13.0586 15.1253 13.4051 14.291 14.0218 13.6759C14.6385 13.0608 15.4749 12.7152 16.3471 12.7152C17.2192 12.7152 18.0556 13.0608 18.6723 13.6759C19.289 14.291 19.6355 15.1253 19.6355 15.9952C19.6355 16.8651 19.289 17.6994 18.6723 18.3145C18.0556 18.9296 17.2192 19.2752 16.3471 19.2752ZM24.3676 7.99999C23.8672 7.50079 22.9512 7.60319 22.3256 8.22719C21.7 8.85279 21.5989 9.76159 22.0994 10.2624C22.5999 10.7632 23.5143 10.6624 24.1415 10.0368C24.7671 9.41279 24.8681 8.49919 24.3676 7.99999ZM8.55429 21.9664C7.92708 22.5904 7.82602 23.5008 8.32651 24C8.82699 24.4992 9.74133 24.4 10.3685 23.7744C10.9957 23.1488 11.0968 22.2368 10.5963 21.7376C10.0958 21.2384 9.17989 21.3408 8.55429 21.9664ZM8.32651 7.99999C7.82602 8.49919 7.92708 9.41279 8.55269 10.0368C9.17989 10.6624 10.0942 10.7616 10.5947 10.2624C11.0952 9.76319 10.9941 8.84959 10.3669 8.22559C9.74294 7.60319 8.82699 7.50079 8.32651 7.99999ZM22.3256 23.7712C22.9512 24.3968 23.8656 24.4992 24.3676 24C24.8697 23.5008 24.7671 22.5872 24.1399 21.9616C23.5126 21.336 22.5999 21.2368 22.0978 21.736C21.5957 22.2352 21.7 23.1472 22.3256 23.7712ZM16.3471 7.99679C17.0545 7.99679 17.6304 7.28159 17.6304 6.39679C17.6288 5.51199 17.0545 4.79999 16.3471 4.79999C15.6381 4.79999 15.0622 5.51199 15.0622 6.39679C15.0622 7.28159 15.6365 7.99679 16.3471 7.99679ZM16.3471 27.2C17.0545 27.2 17.6304 26.4848 17.6304 25.6C17.6304 24.7152 17.0561 24.0032 16.3487 24.0032C15.6397 24.0032 15.0638 24.7152 15.0638 25.6C15.0622 26.4848 15.6365 27.2 16.3471 27.2ZM8.32651 16C8.32651 15.2944 7.60465 14.72 6.71758 14.72C5.8305 14.72 5.11828 15.2944 5.11828 16C5.11828 16.7072 5.8305 17.28 6.71758 17.28C7.60465 17.28 8.32651 16.7072 8.32651 16ZM27.5759 16C27.5759 15.2944 26.8572 14.72 25.9701 14.72C25.0831 14.72 24.3676 15.2944 24.3676 16C24.3676 16.7072 25.0831 17.28 25.9701 17.28C26.8572 17.28 27.5759 16.7072 27.5759 16Z" fill="white"/>
</g>
</svg>
